<!DOCTYPE svg PUBLIC "-//W3C//DTD SVG 20010904//EN" "http://www.w3.org/TR/2001/REC-SVG-20010904/DTD/svg10.dtd">
<svg version="1.0" xmlns="http://www.w3.org/2000/svg" width="1200px" height="600px" viewBox="0 0 12000 6000" preserveAspectRatio="xMidYMid meet">
<g id="layer101" fill="#fff" stroke="none">
 <path d="M0 3000 l0 -3000 6000 0 6000 0 0 3000 0 3000 -6000 0 -6000 0 0 -3000z"/>
 </g>
<g id="layer102" fill="#000" stroke="none">
 <path d="M3390 4819 c-27 -9 -220 -196 -867 -847 -473 -475 -840 -851 -850 -871 -24 -50 -24 -164 1 -211 10 -19 268 -286 574 -593 l557 -557 207 207 c189 189 206 208 197 230 -16 43 -10 145 12 193 22 50 80 114 122 136 l27 15 0 498 0 499 -32 21 c-88 54 -137 140 -138 237 0 82 24 146 73 197 56 57 108 80 189 85 55 3 76 0 120 -20 175 -81 223 -298 97 -442 -22 -25 -49 -48 -59 -51 -20 -6 -20 -18 -20 -508 l1 -502 185 190 c146 150 184 194 179 210 -30 106 -3 210 76 287 136 133 363 87 441 -88 59 -135 8 -284 -122 -358 -50 -28 -63 -31 -142 -30 l-87 0 -193 -193 -192 -192 -1 -93 c0 -109 -17 -149 -87 -215 -59 -54 -131 -77 -213 -70 l-61 6 -208 -208 -208 -208 184 -186 c174 -177 186 -187 241 -202 65 -19 120 -14 178 15 20 11 394 380 850 840 618 624 819 833 836 868 30 62 30 132 0 194 -17 36 -216 243 -834 866 -517 521 -827 826 -850 838 -45 21 -134 27 -183 13z"/>
 <path d="M6675 4713 c-232 -19 -355 -46 -471 -103 -168 -82 -246 -226 -215 -396 16 -83 52 -151 121 -227 53 -58 58 -66 41 -72 -35 -11 -99 -84 -115 -132 -22 -63 -20 -111 6 -180 18 -49 41 -79 155 -195 l135 -136 -61 -42 c-158 -107 -238 -292 -228 -525 9 -226 99 -391 274 -506 88 -57 230 -104 363 -120 114 -14 340 -6 425 15 47 12 133 15 393 16 l332 0 0 144 c0 169 20 151 -177 162 -74 3 -133 11 -133 16 0 6 8 22 19 36 67 96 95 190 95 322 -1 175 -55 303 -178 417 -71 67 -173 121 -291 155 -68 19 -105 22 -250 23 -93 0 -197 -4 -231 -8 l-61 -9 -51 82 c-29 44 -52 84 -52 89 0 5 48 11 108 15 553 34 752 56 881 100 138 47 229 128 266 241 23 67 31 238 15 317 -38 198 -202 360 -440 436 -178 57 -453 84 -675 65z m276 -333 c202 -17 303 -64 328 -155 29 -105 -27 -147 -220 -165 -63 -5 -217 -17 -344 -25 l-230 -16 -23 28 c-60 72 -82 150 -59 205 30 72 117 112 272 127 127 12 146 12 276 1z m62 -1388 c228 -100 221 -465 -11 -552 -48 -18 -73 -21 -157 -18 -85 3 -109 8 -157 31 -74 36 -113 85 -140 171 -47 155 4 305 125 367 85 44 242 45 340 1z"/>
 <path d="M7992 3753 l3 -138 100 -15 c55 -9 106 -19 113 -23 9 -6 12 -131 12 -566 0 -519 -1 -559 -17 -573 -10 -8 -60 -30 -111 -48 -51 -18 -95 -36 -97 -40 -4 -6 16 -165 30 -247 l6 -33 359 0 360 0 0 750 c0 703 1 750 18 759 9 5 61 15 115 22 l97 12 0 139 0 138 -495 0 -496 0 3 -137z"/>
 <path d="M9572 3875 c-142 -32 -240 -102 -292 -209 -57 -116 -60 -149 -60 -731 0 -400 -3 -534 -12 -543 -8 -8 -53 -12 -135 -12 l-123 0 0 -153 0 -153 73 -16 c231 -51 339 -194 383 -510 l6 -48 164 0 164 0 0 265 0 265 260 0 260 0 0 175 0 175 -260 0 -260 0 0 463 c0 549 4 576 90 630 56 35 206 36 330 3 52 -13 96 -23 97 -22 1 1 23 69 48 151 35 114 42 151 33 157 -28 18 -179 71 -268 95 -79 21 -123 26 -265 29 -123 3 -187 0 -233 -11z"/>
 <path d="M8313 1772 c-71 -25 -113 -60 -148 -123 -28 -51 -30 -60 -30 -169 0 -103 3 -120 25 -164 45 -87 124 -134 243 -143 148 -11 254 36 311 137 30 53 31 60 31 170 0 100 -3 121 -22 156 -30 57 -79 103 -133 128 -65 29 -207 33 -277 8z"/>
 </g>

</svg>
